:SAMPLES-PER-SECOND 30
:FULLY-SPECIFIED
:DEGREES
192
root  2.662155572 32.71422198 4.449111082 -13.95501709 -42.66400146 -10.90197754
lowerback  0.3686160147 3.61954999 -2.767519951
upperback  -1.342290044 4.712930202 -3.163130045
thorax  -1.541669965 2.351520061 -1.77986002
lowerneck  -12.03880024 4.979990005 -4.202129841
upperneck  13.43080044 6.276979923 8.473420143
head  5.60600996 3.509939909 3.867650032
lclavicle  0 -9.442270133e-015 7.951389973e-016
lhumerus  -2.073659897 -23.16239929 84.83260345
lradius  2.685768788e-031 -2.292485562e-031 139.5169983
lwrist  -3.531125038e-031 -3.531125038e-031 1.016219974
lhand  -1.496451383e-031 -27.76390076 20.11240005
lfingers  90 7.125020027 -90
lthumb  89.89689403 5.08795885 91.16245106
rclavicle  0 -9.442270133e-015 7.951389973e-016
rhumerus  5.259270191 11.07499981 -77.60720062
rradius  -2.767472857e-031 2.19315709e-031 141.6040039
rwrist  7.062250077e-031 -1.765562519e-031 -9.341690063
rhand  -7.920061211e-032 -33.2840004 9.303460121
rfingers  -90 -7.125020027 -90
rthumb  -92.93752616 -24.25625642 -97.11982154
rfemur  8.641710281 0.9644340277 17.99609947
rtibia  -0 0 74.21179962
rfoot  -0 -40.2981987 -10.43260002
rtoes  5.373923086 19.29304026 -105.8922705
lfemur  -8.41326046 -5.462200165 10.9467001
ltibia  -0 0 75.0963974
lfoot  5.404576126e-032 -35.24440002 -4.669559956
ltoes  -4.250644065 -19.5611806 -102.515957
193
root  2.737266623 32.71733382 4.35582221 -13.20098877 -42.29600525 -11.10101318
lowerback  0.8144109845 3.648299932 -2.754149914
upperback  -1.158560038 4.738329887 -3.185970068
thorax  -1.599290013 2.364140034 -1.834660053
lowerneck  -11.94400024 4.886670113 -4.110249996
upperneck  13.25879955 6.120979786 8.57765007
head  5.546649933 3.443690062 3.865959883
lclavicle  0 -9.442270133e-015 7.951389973e-016
lhumerus  -2.311530113 -23.00110054 85.05979919
lradius  2.681522871e-031 -2.297450571e-031 139.4109955
lwrist  -7.062250077e-031 -0 0.9332219958
lhand  -1.496451383e-031 -27.76390076 20.11240005
lfingers  90 7.125020027 -90
lthumb  89.89689403 5.08795885 91.16245106
rclavicle  0 -9.442270133e-015 7.951389973e-016
rhumerus  5.158010006 10.98270035 -77.85369873
rradius  -2.766209048e-031 2.194750906e-031 141.5709991
rwrist  7.062250077e-031 1.765562519e-031 -9.505649567
rhand  -7.920061211e-032 -33.2840004 9.303460121
rfingers  -90 -7.125020027 -90
rthumb  -92.93752616 -24.25625642 -97.11982154
rfemur  7.928530216 0.8126770258 18.32449913
rtibia  -0 0 74.13990021
rfoot  -0 -40.78829956 -10.80300045
rtoes  5.373923086 19.29304026 -105.8922705
lfemur  -9.534520149 -5.188379765 11.16390038
ltibia  -0 0 75.15010071
lfoot  5.402711213e-032 -35.21640015 -4.723619938
ltoes  -4.250644065 -19.5611806 -102.515957
194
root  2.818822298 32.74511202 4.255844477 -12.65802002 -41.95300293 -11.08197021
lowerback  1.379609942 3.693429947 -2.817379951
upperback  -0.9979310036 4.776159763 -3.208620071
thorax  -1.753800035 2.383860111 -1.857679963
lowerneck  -11.64620018 4.796199799 -4.124420166
upperneck  13.14570045 5.973619938 8.736729622
head  5.464990139 3.37699008 3.893870115
lclavicle  0 -9.442270133e-015 7.951389973e-016
lhumerus  -2.491559982 -22.70269966 85.3003006
lradius  2.669860402e-031 -2.310993179e-031 139.1210022
lwrist  -1.059337512e-030 -0 0.9681140184
lhand  -1.496451383e-031 -27.76390076 20.11240005
lfingers  90 7.125020027 -90
lthumb  89.89689403 5.08795885 91.16245106
rclavicle  0 -9.442270133e-015 7.951389973e-016
rhumerus  4.864490032 10.96730042 -78.13279724
rradius  -2.76199031e-031 2.200057628e-031 141.4609985
rwrist  7.062250077e-031 -1.765562519e-031 -9.782119751
rhand  -7.920061211e-032 -33.2840004 9.303460121
rfingers  -90 -7.125020027 -90
rthumb  -92.93752616 -24.25625642 -97.11982154
rfemur  7.286149979 0.6777060032 18.50959969
rtibia  -0 0 73.99939728
rfoot  -0 -41.06719971 -11.58780003
rtoes  5.373923086 19.29304026 -105.8922705
lfemur  -10.52260017 -4.998400211 11.11859989
ltibia  -0 0 75.13610077
lfoot  5.399394037e-032 -35.16650009 -4.799039841
ltoes  -4.250644065 -19.5611806 -102.515957
195
root  2.908711171 32.79377795 4.146377684 -12.4039917 -41.61700439 -10.75598145
lowerback  2.039210081 3.791320086 -3.046139956
upperback  -0.7205489874 4.876269817 -3.284009933
thorax  -1.849859953 2.434789896 -1.848250031
lowerneck  -11.37539959 4.643899918 -4.195049763
upperneck  12.93949986 5.760310173 8.874290466
head  5.362870216 3.272969961 3.918200016
lclavicle  0 -9.442270133e-015 7.951389973e-016
lhumerus  -2.229449987 -22.40159988 85.40080261
lradius  2.655936935e-031 -2.326981528e-031 138.7769928
lwrist  -3.531125038e-031 -3.531125038e-031 1.446779966
lhand  -1.496451383e-031 -27.76390076 20.11240005
lfingers  90 7.125020027 -90
lthumb  89.89689403 5.08795885 91.16245106
rclavicle  0 -9.442270133e-015 7.951389973e-016
rhumerus  4.647389889 11.00139999 -78.47669983
rradius  -2.744393666e-031 2.221969271e-031 141.0050049
rwrist  7.062250077e-031 -3.531125038e-031 -9.565079689
rhand  -7.920061211e-032 -33.2840004 9.303460121
rfingers  -90 -7.125020027 -90
rthumb  -92.93752616 -24.25625642 -97.11982154
rfemur  6.764939785 0.6065239906 18.45639992
rtibia  -0 0 73.78309631
rfoot  -0 -41.39260101 -12.10929966
rtoes  5.373923086 19.29304026 -105.8922705
lfemur  -11.31900024 -4.953559875 10.71640015
ltibia  -0 0 74.97550201
lfoot  5.387647321e-032 -34.98880005 -4.700739861
ltoes  -4.250644065 -19.5611806 -102.515957
196
root  3.00164448 32.88711187 4.040977899 -12.22998047 -41.38299561 -10.22698975
lowerback  2.625839949 3.868849993 -3.427850008
upperback  -0.4529199898 4.944220066 -3.323829889
thorax  -1.931620002 2.470700026 -1.713790059
lowerneck  -11.00279999 4.541639805 -4.312719822
upperneck  12.6864996 5.633359909 8.941849709
head  5.224080086 3.201129913 3.929140091
lclavicle  0 -9.442270133e-015 7.951389973e-016
lhumerus  -2.031369925 -21.9598999 85.5617981
lradius  2.645595135e-031 -2.338732653e-031 138.522995
lwrist  -7.062250077e-031 -3.531125038e-031 2.107889891
lhand  -1.496451383e-031 -27.76390076 20.11240005
lfingers  90 7.125020027 -90
lthumb  89.89689403 5.08795885 91.16245106
rclavicle  0 -9.442270133e-015 7.951389973e-016
rhumerus  4.323740005 11.22999954 -78.67179871
rradius  -2.725839649e-031 2.244692015e-031 140.529007
rwrist  0 -5.296687558e-031 -9.578390121
rhand  -7.920061211e-032 -33.2840004 9.303460121
rfingers  -90 -7.125020027 -90
rthumb  -92.93752616 -24.25625642 -97.11982154
rfemur  6.166049957 0.6567609906 18.24510002
rtibia  -0 0 73.50910187
rfoot  -0 -41.66210175 -12.34309959
rtoes  5.373923086 19.29304026 -105.8922705
lfemur  -11.97599983 -5.013879776 10.03960037
ltibia  -0 0 74.63610077
lfoot  5.376877775e-032 -34.82450104 -4.382699966
ltoes  -4.250644065 -19.5611806 -102.515957
